<?xml version="1.0" standalone="no"?>
<!DOCTYPE svg PUBLIC "-//W3C//DTD SVG 1.1//EN" "http://www.w3.org/Graphics/SVG/1.1/DTD/svg11.dtd" >
<svg xmlns="http://www.w3.org/2000/svg">
<metadata>
Created by FontForge 20120731 at Sun May 29 15:01:57 2016
 By admin
</metadata>
<defs>
<font id="iconfont" horiz-adv-x="1024" >
  <font-face 
    font-family="iconfont"
    font-weight="500"
    font-stretch="normal"
    units-per-em="1024"
    panose-1="2 0 6 3 0 0 0 0 0 0"
    ascent="896"
    descent="-128"
    x-height="792"
    bbox="0 -128 1024 896"
    underline-thickness="50"
    underline-position="-100"
    unicode-range="U+0078-E711"
  />
<missing-glyph horiz-adv-x="374" 
d="M34 0v682h272v-682h-272zM68 34h204v614h-204v-614z" />
    <glyph glyph-name=".notdef" horiz-adv-x="374" 
d="M34 0v682h272v-682h-272zM68 34h204v614h-204v-614z" />
    <glyph glyph-name=".null" horiz-adv-x="0" 
 />
    <glyph glyph-name="nonmarkingreturn" horiz-adv-x="341" 
 />
    <glyph glyph-name="x" unicode="x" horiz-adv-x="1001" 
d="M281 543q-27 -1 -53 -1h-83q-18 0 -36.5 -6t-32.5 -18.5t-23 -32t-9 -45.5v-76h912v41q0 16 -0.5 30t-0.5 18q0 13 -5 29t-17 29.5t-31.5 22.5t-49.5 9h-133v-97h-438v97zM955 310v-52q0 -23 0.5 -52t0.5 -58t-10.5 -47.5t-26 -30t-33 -16t-31.5 -4.5q-14 -1 -29.5 -0.5
t-29.5 0.5h-32l-45 128h-439l-44 -128h-29h-34q-20 0 -45 1q-25 0 -41 9.5t-25.5 23t-13.5 29.5t-4 30v167h911zM163 247q-12 0 -21 -8.5t-9 -21.5t9 -21.5t21 -8.5q13 0 22 8.5t9 21.5t-9 21.5t-22 8.5zM316 123q-8 -26 -14 -48q-5 -19 -10.5 -37t-7.5 -25t-3 -15t1 -14.5
t9.5 -10.5t21.5 -4h37h67h81h80h64h36q23 0 34 12t2 38q-5 13 -9.5 30.5t-9.5 34.5q-5 19 -11 39h-368zM336 498v228q0 11 2.5 23t10 21.5t20.5 15.5t34 6h188q31 0 51.5 -14.5t20.5 -52.5v-227h-327z" />
    <glyph glyph-name="uniE60D" unicode="&#xe60d;" 
d="M512 896q-139 0 -257 -68.5t-186.5 -186.5t-68.5 -257t68.5 -257t186.5 -186.5t257 -68.5t257 68.5t186.5 186.5t68.5 257t-68.5 257t-186.5 186.5t-257 68.5zM512 -48q-179 0 -305.5 126.5t-126.5 305.5t126.5 305.5t305.5 126.5t305.5 -126.5t126.5 -305.5
t-126.5 -305.5t-305.5 -126.5zM736 448l-1 65l-28 16l-196 111l-195 -112l-28 -17v-63l1 -193l167 -95l28 -16l28 -16h1l56 32l167 97v191zM512 576l139 -80l-139 -80l-140 80zM345 288l-1 159l139 -79l1 -159zM540 208v160l139 80l1 -160z" />
    <glyph glyph-name="uniE60F" unicode="&#xe60f;" 
d="M512 896q-139 0 -257 -68.5t-186.5 -186.5t-68.5 -257t68.5 -257t186.5 -186.5t257 -68.5t257 68.5t186.5 186.5t68.5 257t-68.5 257t-186.5 186.5t-257 68.5zM512 -48q-179 0 -305.5 126.5t-126.5 305.5t126.5 305.5t305.5 126.5t305.5 -126.5t126.5 -305.5
t-126.5 -305.5t-305.5 -126.5zM256 640l146 -512l147 102l109 -102v171l110 102zM585 299l-195 187l195 -153v-34z" />
    <glyph glyph-name="uniE610" unicode="&#xe610;" 
d="M512 896q-139 0 -257 -68.5t-186.5 -186.5t-68.5 -257t68.5 -257t186.5 -186.5t257 -68.5t257 68.5t186.5 186.5t68.5 257t-68.5 257t-186.5 186.5t-257 68.5zM512 -48q-179 0 -305.5 126.5t-126.5 305.5t126.5 305.5t305.5 126.5t305.5 -126.5t126.5 -305.5
t-126.5 -305.5t-305.5 -126.5zM512 608q-93 0 -158.5 -65.5t-65.5 -158.5t65.5 -158.5t158.5 -65.5t158.5 65.5t65.5 158.5t-65.5 158.5t-158.5 65.5zM512 202q-75 0 -128.5 53.5t-53.5 128.5t53.5 128.5t128.5 53.5t128.5 -53.5t53.5 -128.5t-53.5 -128.5t-128.5 -53.5z
M512 352q-13 0 -22.5 9.5t-9.5 22.5t9.5 22.5t22.5 9.5t22.5 -9.5t9.5 -22.5t-9.5 -22.5t-22.5 -9.5zM492 381l23 23l60 -60l-23 -23zM470 487l31 8l29 -119l-31 -8zM746 618q-22 22 -53 22t-53 -22l106 -106q22 22 22 53t-22 53zM278 618q-22 -22 -22 -53t22 -53l106 106
q-22 22 -53 22t-53 -22z" />
    <glyph glyph-name="uniE63A" unicode="&#xe63a;" 
d="M512 896q-139 0 -257 -68.5t-186.5 -186.5t-68.5 -257t68.5 -257t186.5 -186.5t257 -68.5t257 68.5t186.5 186.5t68.5 257t-68.5 257t-186.5 186.5t-257 68.5zM512 -48q-179 0 -305.5 126.5t-126.5 305.5t126.5 305.5t305.5 126.5t305.5 -126.5t126.5 -305.5
t-126.5 -305.5t-305.5 -126.5zM768 384q0 47 -58 82q16 66 -17 99q-22 22 -61 22q-16 0 -38 -5q-35 58 -82 58t-82 -58q-22 5 -38 5q-39 0 -61 -22q-33 -33 -17 -99q-58 -35 -58 -82t58 -82q-16 -66 17 -99q22 -22 61 -22q16 0 38 5q35 -58 82 -58t82 58q22 -5 38 -5
q39 0 61 22q33 33 17 99q58 35 58 82zM578 543q17 7 31 10q13 2 23 2q25 0 38 -13q19 -18 11 -61q-3 -13 -8 -28l-1 -1q0 -2 -1 -2q-6 -18 -17 -37q-12 17 -16 23q-15 17 -32 35q-1 0 -2 1.5t-2 1.5l-2 2l-1 2q-16 16 -36 31q-12 10 -22 18q18 9 37 16zM636 384
q-12 -18 -30 -39q-14 -17 -26 -29q-13 -12 -29 -26q-19 -17 -39 -30q-20 13 -39 30q-17 14 -29 26q-11 11 -26 29q-18 21 -30 39q12 18 30 39q15 18 26 29q12 12 29 26q19 16 39 30q20 -13 39 -30q17 -14 29 -26t26 -29q18 -21 30 -39zM512 608q26 0 50 -36q-24 -10 -50 -26
q-26 16 -50 26q24 36 50 36zM354 542q13 13 38 13q10 0 23.5 -2.5t30.5 -9.5q20 -7 36 -16q-9 -8 -21 -18q-20 -15 -36 -31l-1 -2l-2 -2l-2 -2l-2 -1q-17 -18 -31 -35q-9 -10 -17 -22q-11 19 -17 36q-7 17 -9 31q-9 43 10 61zM324 334q-36 24 -36 50t36 50q10 -24 26 -50
q-16 -26 -26 -50zM446 225q-17 -7 -31 -9.5t-23 -2.5q-25 0 -38 13q-19 18 -10 61q2 14 9 31q6 16 17 36q8 -12 17 -22q13 -17 31 -35l2 -1l2 -2l2 -2l1 -2q16 -16 35 -32q13 -9 22 -17q-16 -9 -36 -16zM512 160q-26 0 -50 36q24 10 50 26q26 -16 50 -26q-24 -36 -50 -36z
M670 226q-13 -13 -38 -13q-9 0 -23 2.5t-31 9.5q-19 7 -37 16q10 7 22 17q20 16 36 32l1 2l2 2q1 0 2 1.5t2 1.5q17 18 31 35q6 7 17 23q11 -20 17 -37q1 -1 1 -2l1 -1q5 -14 8 -28q8 -43 -11 -61zM700 333q-10 24 -26 51q16 27 26 51q36 -25 36 -51t-36 -51zM576 384
q0 -27 -18.5 -45.5t-45.5 -18.5q-26 0 -45 18.5t-19 45.5q0 26 19 45t45 19q27 0 45.5 -19t18.5 -45z" />
    <glyph glyph-name="uniE63B" unicode="&#xe63b;" 
d="M512 896q-139 0 -257 -68.5t-186.5 -186.5t-68.5 -257t68.5 -257t186.5 -186.5t257 -68.5t257 68.5t186.5 186.5t68.5 257t-68.5 257t-186.5 186.5t-257 68.5zM512 -48q-179 0 -305.5 126.5t-126.5 305.5t126.5 305.5t305.5 126.5t305.5 -126.5t126.5 -305.5
t-126.5 -305.5t-305.5 -126.5zM256 640h128v-128h-128v128zM736 640v-64h-32v64h-32v-32h-32v32h-32v-64h-32v64h-32v-32h-32v32h-32v-64h-32v64h-32v-128h320v-352h-352v320h-128v-32h32v-32h-32v-32h64v-32h-64v-32h32v-32h-32v-32h64v-32h-64v-32h32v-32h-32v-32h512v512
h-32z" />
    <glyph glyph-name="uniE648" unicode="&#xe648;" 
d="M512 896q-139 0 -257 -68.5t-186.5 -186.5t-68.5 -257t68.5 -257t186.5 -186.5t257 -68.5t257 68.5t186.5 186.5t68.5 257t-68.5 257t-186.5 186.5t-257 68.5zM512 -48q-179 0 -305.5 126.5t-126.5 305.5t126.5 305.5t305.5 126.5t305.5 -126.5t126.5 -305.5
t-126.5 -305.5t-305.5 -126.5zM384 480h256v-192h-256v192zM672 512h32v-256h-32v256zM736 576h32v-384h-32v384zM320 512h32v-256h-32v256zM256 576h32v-384h-32v384z" />
    <glyph glyph-name="uniE656" unicode="&#xe656;" 
d="M512 896q-139 0 -257 -68.5t-186.5 -186.5t-68.5 -257t68.5 -257t186.5 -186.5t257 -68.5t257 68.5t186.5 186.5t68.5 257t-68.5 257t-186.5 186.5t-257 68.5zM512 -48q-179 0 -305.5 126.5t-126.5 305.5t126.5 305.5t305.5 126.5t305.5 -126.5t126.5 -305.5
t-126.5 -305.5t-305.5 -126.5zM576 640q-80 0 -136 -56t-56 -136v-2v-1q-55 -11 -91.5 -55t-36.5 -102q0 -66 47 -113t113 -47q58 0 102 36.5t55 91.5h1h2q80 0 136 56t56 136t-56 136t-136 56zM416 160q-53 0 -90.5 37.5t-37.5 90.5q0 45 28 80t71 44q11 -58 53 -100
t100 -53q-9 -43 -44 -71t-80 -28zM419 416q51 -2 87 -38t38 -87q-47 10 -81 44t-44 81zM576 288q0 66 -47 113t-113 47q0 66 47 113t113 47t113 -47t47 -113t-47 -113t-113 -47zM320 448q26 0 45 19t19 45t-19 45t-45 19t-45 -19t-19 -45t19 -45t45 -19zM320 544
q13 0 22.5 -9.5t9.5 -22.5t-9.5 -22.5t-22.5 -9.5t-22.5 9.5t-9.5 22.5t9.5 22.5t22.5 9.5z" />
    <glyph glyph-name="uniE667" unicode="&#xe667;" 
d="M512 896q-139 0 -257 -68.5t-186.5 -186.5t-68.5 -257t68.5 -257t186.5 -186.5t257 -68.5t257 68.5t186.5 186.5t68.5 257t-68.5 257t-186.5 186.5t-257 68.5zM512 -48q-179 0 -305.5 126.5t-126.5 305.5t126.5 305.5t305.5 126.5t305.5 -126.5t126.5 -305.5
t-126.5 -305.5t-305.5 -126.5zM736 464q0 33 -23.5 56.5t-56.5 23.5h-288q-33 0 -56.5 -23.5t-23.5 -56.5v-160q0 -33 23.5 -56.5t56.5 -23.5h288q33 0 56.5 23.5t23.5 56.5v160zM367 512h288q16 0 28 -9t17 -23h-378q5 14 17.5 23t27.5 9zM704 304q0 -20 -14.5 -34
t-34.5 -14h-288q-20 0 -33.5 14t-13.5 34v112h384v-112zM367 352h128q7 0 11.5 4.5t4.5 11.5t-4.5 11.5t-11.5 4.5h-128q-6 0 -11 -4.5t-5 -11.5t5 -11.5t11 -4.5zM623 352h32q7 0 11.5 4.5t4.5 11.5t-4.5 11.5t-11.5 4.5h-32q-6 0 -11 -4.5t-5 -11.5t5 -11.5t11 -4.5z
M367 288h64q7 0 11.5 4.5t4.5 11.5t-4.5 11.5t-11.5 4.5h-64q-6 0 -11 -4.5t-5 -11.5t5 -11.5t11 -4.5z" />
    <glyph glyph-name="uniE685" unicode="&#xe685;" 
d="M512 512q-40 0 -77.5 -13t-63 -32t-45 -38t-28.5 -32l-10 -13q3 -5 9.5 -13.5t28.5 -31t46 -39t62 -30.5t78 -14t77.5 13t63 32t45 38t28.5 32l10 13q-3 5 -9.5 13.5t-28.5 31t-46 39t-62 30.5t-78 14zM512 320q-27 0 -45.5 19t-18.5 45t18.5 45t45.5 19t45.5 -19
t18.5 -45t-18.5 -45t-45.5 -19zM512 896q-139 0 -257 -68.5t-186.5 -186.5t-68.5 -257t68.5 -257t186.5 -186.5t257 -68.5t257 68.5t186.5 186.5t68.5 257t-68.5 257t-186.5 186.5t-257 68.5zM512 -48q-179 0 -305.5 126.5t-126.5 305.5t126.5 305.5t305.5 126.5
t305.5 -126.5t126.5 -305.5t-126.5 -305.5t-305.5 -126.5z" />
    <glyph glyph-name="uniE68A" unicode="&#xe68a;" 
d="M512 896q-139 0 -257 -68.5t-186.5 -186.5t-68.5 -257t68.5 -257t186.5 -186.5t257 -68.5t257 68.5t186.5 186.5t68.5 257t-68.5 257t-186.5 186.5t-257 68.5zM512 -48q-179 0 -305.5 126.5t-126.5 305.5t126.5 305.5t305.5 126.5t305.5 -126.5t126.5 -305.5
t-126.5 -305.5t-305.5 -126.5zM704 640q-26 0 -45 -19t-19 -45q0 -37 33 -56l-61 -200h-2h-2q-15 0 -30 -8l-71 79q5 12 5 25q0 26 -19 45t-45 19t-45 -19t-19 -45t18 -45l-68 -117q-8 2 -14 2q-26 0 -45 -19t-19 -45t19 -45t45 -19t45 19t19 45q0 28 -21 47l67 116
q10 -3 18 -3q21 0 39 13l67 -74q-10 -16 -10 -35q0 -26 19 -45t45 -19t45 19t19 45q0 35 -30 54l62 202q26 0 45 19t19 45t-19 45t-45 19zM320 160q-13 0 -22.5 9.5t-9.5 22.5t9.5 22.5t22.5 9.5t22.5 -9.5t9.5 -22.5t-9.5 -22.5t-22.5 -9.5zM448 384q-13 0 -22.5 9.5
t-9.5 22.5t9.5 22.5t22.5 9.5t22.5 -9.5t9.5 -22.5t-9.5 -22.5t-22.5 -9.5zM608 224q-13 0 -22.5 9.5t-9.5 22.5t9.5 22.5t22.5 9.5t22.5 -9.5t9.5 -22.5t-9.5 -22.5t-22.5 -9.5zM704 544q-13 0 -22.5 9.5t-9.5 22.5t9.5 22.5t22.5 9.5t22.5 -9.5t9.5 -22.5t-9.5 -22.5
t-22.5 -9.5z" />
    <glyph glyph-name="uniE68C" unicode="&#xe68c;" 
d="M512 896q-139 0 -257 -68.5t-186.5 -186.5t-68.5 -257t68.5 -257t186.5 -186.5t257 -68.5t257 68.5t186.5 186.5t68.5 257t-68.5 257t-186.5 186.5t-257 68.5zM512 -48q-179 0 -305.5 126.5t-126.5 305.5t126.5 305.5t305.5 126.5t305.5 -126.5t126.5 -305.5
t-126.5 -305.5t-305.5 -126.5zM288 608h128v-128h-128v128zM448 608h128v-128h-128v128zM608 608h128v-128h-128v128zM608 448h128v-128h-128v128zM608 288h128v-128h-128v128zM448 288h128v-128h-128v128zM288 288h128v-128h-128v128zM288 448h128v-128h-128v128zM448 448
h128v-128h-128v128z" />
    <glyph glyph-name="uniE696" unicode="&#xe696;" 
d="M512 896q-139 0 -257 -68.5t-186.5 -186.5t-68.5 -257t68.5 -257t186.5 -186.5t257 -68.5t257 68.5t186.5 186.5t68.5 257t-68.5 257t-186.5 186.5t-257 68.5zM512 -48q-179 0 -305.5 126.5t-126.5 305.5t126.5 305.5t305.5 126.5t305.5 -126.5t126.5 -305.5
t-126.5 -305.5t-305.5 -126.5zM512 576l-256 -384h512zM512 384l-32 -32l-32 64l64 96l64 -96h-32z" />
    <glyph glyph-name="uniE697" unicode="&#xe697;" 
d="M512 896q-139 0 -257 -68.5t-186.5 -186.5t-68.5 -257t68.5 -257t186.5 -186.5t257 -68.5t257 68.5t186.5 186.5t68.5 257t-68.5 257t-186.5 186.5t-257 68.5zM512 -48q-179 0 -305.5 126.5t-126.5 305.5t126.5 305.5t305.5 126.5t305.5 -126.5t126.5 -305.5
t-126.5 -305.5t-305.5 -126.5zM512 186l-210 131l-46 -29l256 -160l256 160l-46 28zM512 282l-209 131l-47 -30l256 -160l256 160l-47 29zM256 480l256 -160l256 160l-256 160z" />
    <glyph glyph-name="uniE698" unicode="&#xe698;" 
d="M512 896q-139 0 -257 -68.5t-186.5 -186.5t-68.5 -257t68.5 -257t186.5 -186.5t257 -68.5t257 68.5t186.5 186.5t68.5 257t-68.5 257t-186.5 186.5t-257 68.5zM512 -48q-179 0 -305.5 126.5t-126.5 305.5t126.5 305.5t305.5 126.5t305.5 -126.5t126.5 -305.5
t-126.5 -305.5t-305.5 -126.5zM448 512q-28 -22 -48 -57.5t-29.5 -73.5t-13 -63.5t-5.5 -48.5q-64 -66 -64 -77q0 -10 10 -21t22 -11q15 0 49 91q23 -6 48 -9t62 -2.5t75.5 16t69 45t53.5 72t33.5 82.5t17 75t7.5 57l1 21q-22 -2 -56.5 -7.5t-111.5 -30t-120 -58.5z" />
    <glyph glyph-name="uniE6AA" unicode="&#xe6aa;" 
d="M512 896q-139 0 -257 -68.5t-186.5 -186.5t-68.5 -257t68.5 -257t186.5 -186.5t257 -68.5t257 68.5t186.5 186.5t68.5 257t-68.5 257t-186.5 186.5t-257 68.5zM512 -48q-179 0 -305.5 126.5t-126.5 305.5t126.5 305.5t305.5 126.5t305.5 -126.5t126.5 -305.5
t-126.5 -305.5t-305.5 -126.5zM640 608h64v-64h-64v64zM640 351q0 -53 -37 -90t-90 -37h-2q-53 0 -90 37t-37 90v161h-64v-161q0 -79 56 -135t135 -56h2q79 0 135 56t56 135v161h-64v-161zM320 608h64v-64h-64v64z" />
    <glyph glyph-name="uniE6AF" unicode="&#xe6af;" 
d="M512 896q-139 0 -257 -68.5t-186.5 -186.5t-68.5 -257t68.5 -257t186.5 -186.5t257 -68.5t257 68.5t186.5 186.5t68.5 257t-68.5 257t-186.5 186.5t-257 68.5zM512 -48q-179 0 -305.5 126.5t-126.5 305.5t126.5 305.5t305.5 126.5t305.5 -126.5t126.5 -305.5
t-126.5 -305.5t-305.5 -126.5zM512 640q-106 0 -181 -75t-75 -181t75 -181t181 -75h256v256q0 106 -75 181t-181 75zM320 384q0 79 56.5 135.5t135.5 56.5t135.5 -56.5t56.5 -135.5t-56.5 -135.5t-135.5 -56.5t-135.5 56.5t-56.5 135.5z" />
    <glyph glyph-name="uniE6D4" unicode="&#xe6d4;" 
d="M512 896q-139 0 -257 -68.5t-186.5 -186.5t-68.5 -257t68.5 -257t186.5 -186.5t257 -68.5t257 68.5t186.5 186.5t68.5 257t-68.5 257t-186.5 186.5t-257 68.5zM512 -48q-179 0 -305.5 126.5t-126.5 305.5t126.5 305.5t305.5 126.5t305.5 -126.5t126.5 -305.5
t-126.5 -305.5t-305.5 -126.5zM672 448v-32l96 64l-96 64v-32h-128l-128 -192h-160v-64h192l128 192h96zM439 413l38 56l-29 43h-192v-64h160zM672 320h-96l-23 35l-38 -56l29 -43h128v-32l96 64l-96 64v-32z" />
    <glyph glyph-name="uniE6DB" unicode="&#xe6db;" 
d="M239 303h224v-128h-224v128zM239 431h32v96h448v-320h-64v-32h96v384h-512v-128zM239 335h32v32h320v-160h-96v-32h128v224h-384v-64zM512 896q-139 0 -257 -68.5t-186.5 -186.5t-68.5 -257t68.5 -257t186.5 -186.5t257 -68.5t257 68.5t186.5 186.5t68.5 257t-68.5 257
t-186.5 186.5t-257 68.5zM512 -48q-179 0 -305.5 126.5t-126.5 305.5t126.5 305.5t305.5 126.5t305.5 -126.5t126.5 -305.5t-126.5 -305.5t-305.5 -126.5z" />
    <glyph glyph-name="uniE6ED" unicode="&#xe6ed;" 
d="M512 896q-139 0 -257 -68.5t-186.5 -186.5t-68.5 -257t68.5 -257t186.5 -186.5t257 -68.5t257 68.5t186.5 186.5t68.5 257t-68.5 257t-186.5 186.5t-257 68.5zM512 -48q-179 0 -305.5 126.5t-126.5 305.5t126.5 305.5t305.5 126.5t305.5 -126.5t126.5 -305.5
t-126.5 -305.5t-305.5 -126.5zM569 441h85q12 0 20.5 8.5t8.5 19.5v86q0 12 -8.5 20t-20.5 8h-85q-12 0 -20 -8t-8 -20v-86q0 -11 8 -19.5t20 -8.5zM344 529q-25 0 -43.5 -6t-26.5 -14t-12.5 -16.5t-5.5 -13.5v-6v-89q0 -11 7 -18t14 -9l8 -1h28v-88q-24 -3 -39.5 -14.5
t-15.5 -26.5q0 -17 26.5 -29.5t56.5 -12.5q32 0 58 11.5t26 28.5q0 15 -15.5 27.5t-39.5 15.5v88h27q12 0 19.5 7t9.5 14l1 7v90q0 24 -21 38t-41 15zM766 471q0 12 -7 19t-14 8l-7 1h-26v-74q0 -8 -3.5 -11.5t-7.5 -2.5l-4 1h-175q-5 0 -8.5 3t-3.5 7l-1 3l1 72l-28 2
q-13 0 -20 -7t-7 -15v-7v-58q1 -1 0 -7t5.5 -13.5t19.5 -7.5h32v-172q0 -13 7 -19.5t14 -6.5h7h30q13 0 20 6.5t7 13.5l1 7v86q0 6 3.5 11t6.5 7l4 1q4 0 7 -4.5t5 -9.5l1 -4v-86q0 -13 10 -20.5t19 -7.5l10 -1h15q13 0 20.5 6.5t8.5 13.5l2 7l2 172h25q12 0 20 7.5t9 15.5
l2 8z" />
    <glyph glyph-name="uniE711" unicode="&#xe711;" 
d="M591 467l-79 161l-79 -160l-177 -26l128 -125l-31 -176l158 83l158 -84l-29 177l128 124zM512 896q-139 0 -257 -68.5t-186.5 -186.5t-68.5 -257t68.5 -257t186.5 -186.5t257 -68.5t257 68.5t186.5 186.5t68.5 257t-68.5 257t-186.5 186.5t-257 68.5zM512 -48
q-179 0 -305.5 126.5t-126.5 305.5t126.5 305.5t305.5 126.5t305.5 -126.5t126.5 -305.5t-126.5 -305.5t-305.5 -126.5z" />
  </font>
</defs>
</svg>
